<!DOCTYPE svg PUBLIC "-//W3C//DTD SVG 1.1//EN" "http://www.w3.org/Graphics/SVG/1.1/DTD/svg11.dtd">
<!-- Uploaded to: SVG Repo, www.svgrepo.com, Transformed by: SVG Repo Mixer Tools -->
<svg fill="#000000" width="64px" height="64px" viewBox="0 0 24 24" xmlns="http://www.w3.org/2000/svg">
<g id="SVGRepo_bgCarrier" stroke-width="0"/>
<g id="SVGRepo_tracerCarrier" stroke-linecap="round" stroke-linejoin="round"/>
<g id="SVGRepo_iconCarrier">
<path d="M22,5a1,1,0,0,1-1,1H3A1,1,0,0,1,3,4H8V3A1,1,0,0,1,9,2h6a1,1,0,0,1,1,1V4h5A1,1,0,0,1,22,5ZM4.934,21.071,4,8H20l-.934,13.071a1,1,0,0,1-1,.929H5.931A1,1,0,0,1,4.934,21.071ZM15,18a1,1,0,0,0,2,0V12a1,1,0,0,0-2,0Zm-4,0a1,1,0,0,0,2,0V12a1,1,0,0,0-2,0ZM7,18a1,1,0,0,0,2,0V12a1,1,0,0,0-2,0Z"/>
</g>
</svg>